<svg xmlns="http://www.w3.org/2000/svg" viewBox="1.6 1.9 97.85 97">
	<path d="M 50.1 98.9 c -26.7 0 -48.5 -21.8 -48.5 -48.5 S 23.4 1.9 50.1 1.9 c 8.9 0 17.5 2.4 25.1 7 c 0.7 0.4 0.9 1.4 0.5 2.1 c -0.4 0.7 -1.4 0.9 -2.1 0.5 C 66.5 7.2 58.4 5 50.1 5 C 25 4.9 4.6 25.3 4.6 50.4 S 25 95.9 50.1 95.9 s 45.5 -20.4 45.5 -45.5 c 0 -3.2 -0.3 -6.4 -1 -9.5 c -0.2 -0.8 0.3 -1.6 1.2 -1.8 c 0.8 -0.2 1.6 0.3 1.8 1.2 c 0.7 3.3 1.1 6.7 1.1 10.1 c -0.1 26.7 -21.8 48.5 -48.6 48.5 z M 50.1 63.9 c -0.4 0 -0.8 -0.2 -1.1 -0.4 L 24.8 39.2 c -0.6 -0.6 -0.6 -1.5 0 -2.1 c 0.6 -0.6 1.5 -0.6 2.1 0 l 23.2 23.2 l 46.8 -48 c 0.6 -0.6 1.5 -0.6 2.1 0 c 0.6 0.6 0.6 1.5 0 2.1 l -47.8 49 c -0.3 0.3 -0.7 0.5 -1.1 0.5 z" fill="#a6cc45"/>
</svg>