<?xml version="1.0" standalone="no"?>
<!DOCTYPE svg PUBLIC "-//W3C//DTD SVG 20010904//EN"
 "http://www.w3.org/TR/2001/REC-SVG-20010904/DTD/svg10.dtd">
<svg version="1.0" xmlns="http://www.w3.org/2000/svg"
 width="357.000000pt" height="357.000000pt" viewBox="0 0 357.000000 357.000000"
 preserveAspectRatio="xMidYMid meet">
<metadata>
Created by potrace 1.14, written by Peter Selinger 2001-2017
</metadata>
<g transform="translate(0.000000,357.000000) scale(0.100000,-0.100000)"
fill="#000000" stroke="none">
<path d="M1628 2841 c-98 -31 -178 -58 -178 -61 0 -3 127 -46 283 -95 155 -48
336 -105 402 -126 361 -113 342 -106 315 -117 -29 -11 -497 -193 -1030 -399
-206 -80 -378 -148 -382 -152 -4 -3 -8 -225 -8 -493 -2 -423 -4 -487 -17 -492
-8 -3 -19 -4 -24 0 -5 3 -19 -2 -31 -10 -12 -9 -18 -16 -12 -16 5 0 15 5 22
12 7 7 15 8 20 2 4 -5 5 -8 3 -7 -2 2 -11 -2 -18 -9 -13 -11 -32 -16 -73 -20
-16 -1 -30 -17 -30 -33 0 -5 4 -4 9 4 13 20 49 21 64 2 10 -12 9 -14 -6 -8
-15 5 -16 4 -7 -13 14 -25 13 -30 -5 -24 -8 4 -12 10 -9 15 3 5 -3 6 -13 2
-16 -6 -16 -5 -4 10 7 9 9 17 3 17 -12 0 -25 -27 -27 -56 -1 -16 4 -20 22 -18
13 1 25 -2 29 -7 3 -5 0 -9 -5 -9 -6 0 -11 -6 -11 -12 0 -16 -49 -77 -50 -62
0 6 9 23 20 37 25 31 25 37 1 37 -16 0 -19 8 -20 56 0 33 4 64 12 72 7 10 8
13 1 9 -7 -4 -13 1 -16 11 -5 24 -3 1070 2 1075 3 2 253 95 555 207 642 238
665 247 645 254 -145 50 -848 279 -855 279 -12 -1 -398 -124 -404 -129 -2 -2
7 -7 20 -12 13 -5 97 -35 187 -67 89 -31 162 -60 162 -64 0 -3 -84 -35 -187
-69 -483 -163 -582 -198 -589 -205 -5 -5 -10 -1065 -5 -1147 1 -8 18 -24 39
-36 45 -25 168 -92 237 -128 28 -15 58 -37 68 -49 10 -12 16 -16 12 -9 -4 8 5
7 29 -5 20 -9 36 -21 36 -25 0 -5 4 -7 9 -4 4 3 16 -1 27 -8 16 -12 16 -16 5
-30 -8 -9 -16 -14 -19 -11 -3 2 1 12 9 22 8 9 9 14 2 10 -6 -4 -14 -1 -16 5
-3 7 -4 -2 -3 -20 2 -20 -1 -31 -7 -29 -6 2 -11 15 -12 30 0 14 -7 32 -15 39
-12 11 -12 11 -1 -4 9 -12 10 -18 2 -18 -6 0 -11 -5 -11 -11 0 -5 5 -7 10 -4
17 11 11 -7 -7 -20 -16 -12 -16 -15 7 -34 14 -11 20 -20 14 -21 -14 0 -49 26
-50 39 -1 6 -2 16 -3 21 0 6 -6 10 -12 10 -8 0 -7 -6 2 -16 12 -15 11 -16 -6
-11 -11 4 -27 2 -35 -4 -12 -9 -12 -10 4 -5 20 7 70 -20 62 -32 -12 -20 48
-10 65 11 10 12 18 17 19 11 0 -5 -5 -15 -12 -22 -9 -9 -9 -12 1 -12 7 0 9 -5
6 -11 -4 -6 -10 -8 -13 -5 -3 4 -17 -1 -30 -10 -23 -15 -25 -15 -19 0 4 9 2
16 -3 16 -6 0 -10 -7 -10 -15 0 -8 -4 -15 -9 -15 -15 0 -22 -30 -11 -50 7 -13
7 -21 0 -25 -14 -9 -12 -21 6 -39 8 -9 11 -16 5 -16 -6 0 -11 -5 -11 -12 0 -9
3 -9 12 0 14 14 32 16 23 3 -10 -16 15 -23 32 -9 14 11 16 11 10 -4 -4 -12 -1
-16 13 -13 11 2 22 0 25 -5 3 -5 14 -7 25 -5 11 2 20 -1 20 -7 0 -6 3 -8 6 -5
4 3 16 2 27 -4 12 -7 17 -7 13 -1 -3 6 -2 12 4 14 5 1 -4 11 -20 20 -17 9 -30
13 -30 9 0 -4 10 -13 23 -19 12 -6 17 -11 11 -11 -5 -1 -19 5 -29 13 -17 12
-18 16 -5 32 14 18 14 18 -5 4 -19 -14 -19 -14 -6 2 7 10 17 15 22 12 5 -3 9
0 9 5 0 16 -16 13 -30 -4 -7 -8 -17 -15 -23 -15 -6 0 7 13 28 29 22 16 46 26
57 23 10 -2 18 1 18 7 0 7 -8 11 -17 9 -11 -2 -17 2 -15 10 1 8 -2 11 -9 7 -8
-6 -8 -2 0 14 7 11 17 21 23 21 6 0 8 3 5 6 -4 4 -15 1 -24 -7 -17 -13 -17
-13 -3 6 14 19 14 19 -5 5 -18 -14 -19 -14 -7 2 8 9 19 15 27 12 7 -3 16 -1
20 5 3 7 0 8 -9 5 -10 -4 -14 0 -13 15 1 12 5 21 10 21 5 0 7 -7 3 -15 -9 -23
0 -18 20 12 17 27 17 28 -1 13 -18 -14 -18 -14 -2 11 10 14 14 29 10 32 -3 4
-1 7 4 7 11 0 11 11 0 40 -3 8 -5 22 -5 30 0 8 -3 23 -7 34 -7 16 -6 17 13 7
15 -8 22 -8 22 -1 0 5 -6 10 -14 10 -8 0 -17 7 -20 16 -9 22 -8 24 9 18 8 -4
12 -11 8 -17 -3 -5 -1 -7 5 -4 5 4 8 16 5 27 -3 11 -1 20 4 20 5 0 9 -19 8
-42 0 -24 -5 -42 -11 -41 -11 2 -12 -52 -2 -63 4 -4 6 3 3 14 -2 12 0 24 4 27
10 5 7 -39 -4 -74 -5 -17 -4 -21 5 -16 9 6 9 3 1 -13 -14 -26 -14 -35 -1 -27
6 4 10 3 9 -2 -3 -20 2 -34 11 -28 6 3 10 1 10 -5 0 -7 -7 -10 -14 -7 -9 4
-13 1 -10 -6 2 -7 14 -13 24 -14 11 -1 18 2 15 8 -4 5 -1 9 4 9 6 0 11 -5 11
-11 0 -5 4 -7 10 -4 6 4 7 -1 3 -11 -4 -12 -3 -15 6 -10 9 6 9 3 -1 -13 -7
-12 -19 -19 -26 -16 -8 3 -12 0 -9 -7 2 -7 10 -12 16 -10 7 1 9 -2 5 -9 -4 -7
-1 -10 7 -7 8 3 14 13 14 24 0 14 6 18 24 16 21 -2 22 0 10 15 -11 15 -9 14 9
-1 12 -11 20 -26 18 -33 -3 -8 1 -16 9 -19 8 -4 15 -11 15 -16 0 -6 -7 -5 -15
2 -13 10 -19 10 -33 -4 -10 -9 -21 -14 -24 -11 -9 9 -30 -23 -23 -35 7 -11 54
-34 66 -32 3 0 6 -6 6 -14 0 -7 -2 -12 -5 -9 -2 2 -12 -4 -21 -13 -9 -10 -15
-16 -14 -13 4 7 -19 31 -29 31 -6 0 -5 -7 2 -15 9 -10 9 -15 1 -15 -6 0 -11 5
-11 10 0 6 -4 10 -10 10 -5 0 -10 -7 -10 -17 0 -9 3 -14 6 -10 3 3 17 1 31 -4
18 -6 30 -6 39 2 8 6 14 8 14 3 0 -4 6 0 13 11 11 14 16 15 22 5 5 -8 4 -11
-2 -7 -6 4 -14 0 -17 -9 -3 -8 -11 -12 -17 -8 -7 4 -9 3 -5 -4 3 -6 14 -11 24
-11 9 1 54 -9 100 -21 45 -11 88 -18 95 -14 7 4 9 3 4 -1 -6 -8 80 -35 153
-50 14 -2 84 -19 155 -36 l130 -32 95 49 c52 26 97 49 100 49 34 9 88 39 83
48 -3 5 -1 7 4 4 6 -4 43 8 82 26 58 27 69 35 58 46 -10 11 -9 12 6 4 14 -7
38 0 103 32 46 23 84 40 84 37 0 -3 9 3 20 13 11 10 20 14 20 9 0 -5 7 0 15
10 8 11 15 17 15 13 0 -4 19 3 43 15 23 12 45 23 50 24 4 1 10 2 15 3 4 1 -2
8 -12 16 -11 8 -17 18 -13 22 4 3 16 -2 27 -12 20 -18 21 -18 38 0 9 10 12 15
5 11 -6 -3 -16 2 -22 11 -6 10 -11 13 -11 7 0 -5 5 -15 12 -22 9 -9 9 -12 1
-12 -16 0 -28 21 -25 42 2 10 -1 18 -7 18 -6 0 -8 -8 -5 -17 5 -16 4 -16 -10
1 -13 16 -18 17 -32 5 -15 -12 -16 -12 -10 7 4 13 -1 27 -14 42 -12 12 -16 22
-10 22 5 0 10 5 10 11 0 8 -5 7 -15 -1 -9 -7 -18 -10 -21 -7 -3 3 3 12 15 19
29 18 27 23 -19 64 -37 33 -44 54 -19 54 6 0 8 -4 5 -9 -3 -5 0 -13 7 -18 8
-7 18 -4 30 9 9 10 13 18 8 18 -6 0 -13 -4 -16 -10 -3 -5 -11 -10 -17 -10 -6
0 -3 9 7 20 10 11 13 20 7 20 -7 0 -12 -4 -12 -10 0 -5 -6 -7 -13 -4 -31 12
-59 -81 -34 -113 6 -8 6 -13 0 -13 -17 0 -8 -105 11 -135 10 -15 14 -25 8 -21
-6 3 -9 -2 -8 -11 2 -10 -3 -27 -11 -39 -7 -11 -10 -23 -7 -27 4 -3 -3 -4 -15
-2 -13 2 -24 -2 -28 -11 -3 -8 -12 -13 -20 -10 -8 3 -12 2 -9 -2 2 -4 -4 -9
-15 -9 -11 -1 -19 3 -17 8 2 6 6 9 10 7 3 -2 15 6 27 16 12 11 21 15 21 10 0
-12 34 38 36 53 1 7 -2 15 -7 19 -5 3 -6 10 -3 16 10 15 11 88 2 121 -4 16 -3
25 3 22 11 -8 11 -3 0 28 -6 14 -7 28 -4 31 12 11 12 57 1 50 -7 -4 -8 -2 -4
5 12 19 14 61 3 61 -5 0 -4 7 4 16 10 13 10 17 -2 25 -8 5 -9 9 -4 9 6 0 15
-3 21 -8 5 -4 2 0 -6 8 -12 11 -14 23 -9 43 4 15 3 29 -2 33 -6 3 -6 12 0 22
5 9 6 25 2 36 -8 26 -8 48 2 63 4 6 3 14 -3 18 -7 4 -6 13 1 27 7 13 7 23 2
27 -10 6 -9 61 1 87 3 8 2 14 -3 14 -5 0 -7 11 -5 25 2 26 20 55 34 55 4 0
135 62 291 139 l284 139 3 -96 c1 -52 -1 -99 -5 -103 -4 -4 -95 -51 -200 -103
l-193 -96 -1 -42 c-2 -205 -2 -203 -30 -202 -15 1 -26 -4 -26 -12 0 -8 5 -10
11 -5 6 4 19 8 29 8 16 0 18 -7 15 -44 -2 -28 1 -44 9 -48 7 -2 13 1 13 6 0 6
9 9 20 6 11 -3 18 -2 16 2 -5 8 164 104 178 101 5 -1 12 3 15 9 7 11 126 77
591 326 l95 51 3 427 c1 235 0 427 -2 427 -2 0 -25 -10 -52 -21 -57 -25 -1090
-482 -1149 -509 -22 -10 -76 -33 -120 -53 -44 -19 -105 -46 -135 -60 -30 -13
-104 -46 -165 -72 -60 -27 -116 -53 -122 -58 -9 -6 -13 -41 -13 -106 0 -64 -4
-102 -12 -110 -7 -8 -8 -11 -2 -8 8 4 11 -25 11 -98 0 -58 -3 -105 -7 -105 -4
0 -6 14 -5 32 2 25 0 28 -9 16 -6 -8 -17 -13 -24 -10 -10 3 -6 9 10 21 24 16
25 17 8 44 -11 18 -20 25 -25 17 -4 -6 -15 -8 -25 -5 -10 3 -25 -1 -33 -10
-17 -16 -42 -21 -32 -6 3 5 -4 12 -15 16 -11 3 -20 14 -21 23 -6 114 -2 385 6
392 6 4 118 53 250 109 132 56 254 108 270 116 17 7 296 127 620 265 325 139
610 261 635 273 l45 20 -185 54 c-102 29 -255 74 -340 99 -85 25 -222 65 -305
89 -82 24 -298 86 -478 139 -180 53 -331 96 -335 95 -4 -1 -87 -26 -184 -58z
m26 -1637 c9 -22 8 -24 -9 -18 -8 4 -15 12 -15 20 0 19 16 18 24 -2z m87 -1
c12 -15 12 -16 -4 -10 -24 9 -60 -10 -53 -28 2 -7 -2 -16 -10 -19 -23 -9 -11
30 17 53 30 25 33 25 50 4z m33 0 c7 -17 -22 -49 -33 -37 -3 3 3 12 13 20 11
8 14 14 8 14 -7 0 -12 5 -12 10 0 16 17 11 24 -7z m-44 -32 c0 -11 9 -23 21
-26 17 -6 19 -9 8 -16 -19 -12 -32 -11 -24 1 3 6 0 13 -9 16 -8 3 -12 13 -9
22 4 14 3 15 -6 2 -5 -8 -13 -11 -18 -7 -4 5 -1 12 7 17 22 14 30 12 30 -9z
m-75 0 c3 -5 0 -13 -6 -17 -19 -11 13 -24 33 -13 19 10 47 1 46 -16 0 -5 9
-15 21 -21 11 -6 18 -14 14 -17 -3 -4 -13 -1 -21 6 -13 10 -14 9 -7 -2 5 -9 4
-12 -2 -8 -6 4 -19 -1 -29 -9 -16 -14 -17 -15 -2 -10 21 6 38 -18 38 -55 0 -5
5 -7 10 -4 7 4 7 13 0 26 -12 22 -4 43 12 33 6 -4 5 -10 -3 -15 -11 -7 -11 -9
-1 -9 7 0 11 -4 7 -9 -3 -5 -1 -12 4 -15 5 -4 12 -2 16 4 10 17 24 11 22 -9 0
-11 -5 -17 -9 -15 -4 3 -8 0 -8 -5 0 -6 4 -11 9 -11 5 0 8 -11 7 -24 0 -13 -4
-22 -8 -19 -5 2 -8 -1 -8 -6 0 -6 5 -11 12 -11 6 0 8 -3 4 -7 -4 -5 -13 -1
-19 8 -10 14 -14 14 -25 3 -7 -8 -10 -15 -7 -15 3 -1 10 -3 15 -4 6 -1 18 -3
28 -4 13 -2 12 -4 -6 -11 -14 -6 -22 -17 -20 -27 3 -20 20 -43 28 -38 3 2 6
-5 6 -16 0 -16 -3 -15 -22 9 -12 15 -20 30 -18 34 2 4 0 9 -6 13 -5 3 -10 1
-10 -6 0 -9 -3 -9 -14 0 -11 9 -15 6 -20 -15 -6 -21 -9 -24 -22 -13 -9 7 -12
20 -8 33 6 19 5 19 -10 7 -15 -13 -15 -16 0 -38 14 -23 14 -26 -3 -38 -10 -7
-20 -11 -23 -8 -3 2 3 9 13 14 16 9 16 11 0 37 -10 15 -22 31 -28 35 -5 5 0 5
12 2 18 -5 22 -3 17 9 -3 9 -10 14 -14 11 -5 -3 -12 0 -16 6 -4 8 -3 9 4 5 7
-4 12 -2 12 3 0 6 -4 11 -9 11 -5 0 -8 12 -8 26 0 14 2 21 6 16 9 -15 25 -2
29 23 3 16 1 18 -9 8 -7 -7 -18 -13 -23 -13 -6 0 -4 5 4 10 8 5 10 10 5 10 -7
0 -11 36 -12 90 -1 81 5 107 22 81z m131 -46 c-3 -9 1 -18 9 -21 8 -4 15 -10
15 -16 0 -5 -4 -6 -10 -3 -5 3 -10 1 -10 -4 0 -6 6 -11 13 -11 9 0 8 -3 -2 -9
-9 -6 -10 -10 -2 -12 6 -2 3 -9 -8 -16 -17 -11 -19 -10 -16 7 2 11 -1 22 -6
26 -6 4 -6 11 1 19 8 10 7 16 -7 24 -17 10 -17 10 0 11 9 0 17 5 17 10 0 6 3
10 6 10 3 0 3 -7 0 -15z m-36 -51 c0 -8 -19 -13 -24 -6 -3 5 1 9 9 9 8 0 15
-2 15 -3z m57 -216 c2 -18 0 -20 -7 -8 -12 18 -13 30 -2 30 4 0 9 -10 9 -22z
m-827 -9 c0 -5 -5 -9 -10 -9 -6 0 -2 -12 7 -27 10 -15 13 -24 6 -20 -8 5 -11
1 -10 -13 1 -10 7 -22 15 -25 9 -3 10 -10 3 -24 -6 -10 -7 -21 -4 -25 3 -3 1
-6 -6 -6 -7 0 -10 -4 -6 -9 7 -12 -32 -34 -45 -26 -7 4 -6 13 0 25 8 16 8 18
-5 14 -8 -3 -13 -10 -10 -14 3 -4 -3 -11 -12 -14 -15 -6 -15 -8 -3 -16 8 -6
13 -10 10 -11 -41 -6 -60 -6 -60 2 0 6 4 8 8 5 9 -5 65 52 69 69 1 5 7 11 15
13 11 3 11 2 0 -6 -11 -7 -11 -10 3 -15 12 -5 14 -11 5 -27 -8 -16 -8 -18 4
-14 8 3 13 13 11 22 -1 9 5 26 14 37 15 18 15 19 -1 7 -10 -8 -19 -9 -22 -3
-3 5 -3 11 1 14 5 2 2 2 -6 0 -7 -2 -20 2 -27 8 -8 6 -14 8 -14 4 0 -4 -7 -2
-15 5 -26 21 -16 31 14 15 29 -15 49 -7 36 14 -3 5 0 13 5 16 8 5 6 13 -5 25
-15 16 -14 18 10 18 14 0 25 -4 25 -9z m660 -15 c-1 -4 4 -11 12 -16 11 -8 10
-9 -1 -6 -8 2 -15 15 -17 29 -1 13 0 18 2 12 3 -7 5 -15 4 -19z m126 -21 c13
-15 21 -29 19 -31 -4 -5 -20 10 -44 41 -22 28 0 19 25 -10z m724 -26 c0 -6
-10 -2 -22 9 -21 17 -21 16 1 -9 24 -27 18 -38 -9 -14 -11 9 -11 8 0 -7 13
-17 13 -19 0 -14 -10 3 -15 18 -15 46 l0 41 23 -21 c12 -12 22 -26 22 -31z
m-764 24 c-4 -5 -1 -11 6 -13 7 -3 5 -7 -6 -11 -10 -4 -15 -3 -11 3 3 6 0 10
-7 10 -9 0 -9 3 2 10 19 12 23 12 16 1z m49 -50 c-6 -5 -25 10 -25 20 0 5 6 4
14 -3 8 -7 12 -15 11 -17z m-95 9 c0 -5 -5 -10 -11 -10 -5 0 -7 5 -4 10 3 6 8
10 11 10 2 0 4 -4 4 -10z m55 0 c-3 -5 -12 -10 -18 -10 -7 0 -6 4 3 10 19 12
23 12 15 0z m779 2 c3 -5 -4 -16 -16 -26 l-21 -18 29 -23 c19 -15 29 -33 30
-54 2 -32 -10 -49 -21 -31 -3 5 -1 10 6 10 10 0 10 3 1 12 -15 15 -16 32 -2
23 6 -3 10 -1 10 4 0 6 -10 10 -22 8 -17 -1 -23 3 -22 15 1 10 -1 16 -5 14 -4
-3 -8 6 -9 19 -1 13 5 26 14 29 8 3 12 10 9 16 -3 5 -2 10 4 10 5 0 12 -4 15
-8z m-864 -22 c0 -5 -2 -10 -4 -10 -3 0 -8 5 -11 10 -3 6 -1 10 4 10 6 0 11
-4 11 -10z m64 -15 c9 -14 13 -25 8 -25 -5 0 -14 11 -20 25 -6 14 -10 25 -8
25 2 0 11 -11 20 -25z m34 19 c-9 -8 25 -42 36 -36 5 3 6 0 2 -7 -5 -8 -14 -5
-31 11 -21 20 -25 38 -8 38 4 0 4 -3 1 -6z m62 2 c0 -3 -4 -8 -10 -11 -5 -3
-10 -1 -10 4 0 6 5 11 10 11 6 0 10 -2 10 -4z m-127 -33 c-3 -7 -6 -13 -8 -13
-2 0 -5 6 -8 13 -3 8 1 14 8 14 7 0 11 -6 8 -14z m777 -11 c-5 -2 3 -17 18
-34 15 -16 28 -39 28 -49 2 -34 15 -35 40 -4 13 17 24 28 25 25 1 -3 2 -20 4
-38 2 -29 -2 -35 -35 -52 -38 -19 -38 -19 -33 1 4 16 8 18 14 7 7 -10 9 -11 9
0 0 7 4 11 8 8 4 -2 14 0 22 6 12 8 12 9 -2 4 -11 -3 -18 0 -18 7 0 9 -3 8 -9
-1 -4 -8 -11 -13 -15 -13 -18 3 -27 0 -22 -7 2 -4 -2 -18 -10 -32 -7 -14 -13
-19 -14 -11 0 11 -4 10 -16 -5 -14 -18 -14 -17 -2 6 7 14 12 29 13 33 0 4 6
12 14 17 8 4 16 16 17 24 1 9 -2 14 -7 11 -5 -3 -17 -2 -27 4 -14 8 -17 20
-16 63 2 66 2 66 14 48 6 -9 6 -16 0 -18z m-1587 -6 c-10 -13 -20 -22 -22 -20
-2 2 -12 -3 -21 -11 -15 -14 -19 -13 -35 5 -10 11 -13 20 -7 20 6 0 14 -4 17
-10 10 -16 21 -12 46 15 31 32 45 32 22 1z m881 -18 c-3 -4 -9 -8 -15 -8 -5 0
-9 4 -9 8 0 5 7 9 15 9 8 0 12 -4 9 -9z m56 8 c0 -3 -4 -8 -10 -11 -5 -3 -10
-1 -10 4 0 6 5 11 10 11 6 0 10 -2 10 -4z m-118 -35 c-3 -8 -1 -12 5 -8 5 3
10 0 10 -8 0 -11 -4 -12 -14 -4 -10 9 -18 8 -30 -2 -16 -12 -16 -11 0 8 14 16
15 22 5 26 -7 3 -3 4 8 4 15 -1 20 -6 16 -16z m-747 -13 c5 4 -2 -8 -15 -27
-18 -27 -20 -35 -9 -41 7 -5 10 -12 6 -16 -4 -4 -2 -12 3 -19 7 -8 1 -18 -20
-33 -17 -13 -31 -18 -35 -12 -4 6 -16 3 -31 -6 -13 -9 -24 -12 -24 -8 0 14 14
29 28 32 6 1 17 3 24 5 17 3 47 40 41 50 -3 4 -11 3 -19 -4 -20 -16 -17 0 4
24 9 11 11 17 5 13 -7 -4 -13 -2 -13 3 0 6 5 11 11 11 5 0 8 4 4 9 -3 5 -1 12
5 16 6 4 8 12 4 18 -3 7 1 4 9 -5 8 -10 18 -14 22 -10z m842 -10 c-3 -8 -6 -5
-6 6 -1 11 2 17 5 13 3 -3 4 -12 1 -19z m-17 8 c0 -2 -8 -10 -17 -17 -16 -13
-17 -12 -4 4 13 16 21 21 21 13z m-884 -29 c-1 -13 -6 -28 -10 -35 -10 -16 3
-35 18 -25 7 4 3 0 -7 -9 -11 -10 -23 -15 -28 -12 -5 3 -9 -1 -9 -8 0 -9 -3
-9 -10 2 -8 12 -10 12 -10 1 0 -8 -3 -12 -6 -8 -3 3 -1 14 5 24 8 14 10 14 11
3 0 -13 2 -13 9 0 6 8 7 18 5 22 -3 4 0 8 7 8 7 0 4 7 -7 15 -19 15 -19 15 0
30 27 21 35 19 32 -8z m-40 -45 c1 -6 -2 -10 -6 -7 -13 8 -29 -27 -28 -61 1
-45 -1 -54 -12 -54 -5 0 -9 4 -7 9 1 4 -9 17 -23 29 -21 17 -22 22 -11 36 11
13 11 19 1 31 -10 12 -10 18 0 30 18 21 26 10 9 -12 -13 -16 -12 -17 3 -5 15
12 17 11 16 -10 -1 -13 -6 -28 -11 -35 -12 -16 0 -33 19 -26 11 4 12 9 5 16
-7 7 -7 15 0 24 8 9 8 13 1 13 -6 0 -9 7 -5 16 3 9 9 11 12 6 4 -6 11 -4 18 4
8 8 9 15 3 19 -6 3 -10 2 -10 -3 0 -5 -7 -9 -15 -9 -9 0 -14 5 -12 11 3 6 10
10 16 9 6 -2 11 3 11 10 1 14 23 -21 26 -41z m859 39 c3 -5 2 -12 -3 -15 -5
-3 -9 1 -9 9 0 17 3 19 12 6z m780 -19 c-3 -3 -11 0 -18 7 -9 10 -8 11 6 5 10
-3 15 -9 12 -12z m-719 -22 c0 -12 -4 -16 -9 -11 -5 5 -6 14 -3 20 10 15 12
14 12 -9z m-36 -2 c0 -4 -4 -8 -9 -8 -6 0 -12 4 -15 8 -3 5 1 9 9 9 8 0 15 -4
15 -9z m-535 -17 c3 -5 2 -12 -3 -15 -5 -3 -9 1 -9 9 0 17 3 19 12 6z m18 -26
c-3 -9 -8 -14 -10 -11 -3 3 -2 9 2 15 9 16 15 13 8 -4z m34 -10 c0 -8 -4 -12
-9 -9 -5 3 -6 10 -3 15 9 13 12 11 12 -6z m460 0 c0 -8 -4 -12 -9 -9 -5 3 -6
10 -3 15 9 13 12 11 12 -6z m-440 -27 c-3 -8 -6 -5 -6 6 -1 11 2 17 5 13 3 -3
4 -12 1 -19z m-401 -3 c-3 -9 1 -18 8 -21 22 -8 28 -33 8 -29 -9 1 -16 7 -15
13 1 6 -4 13 -12 16 -10 3 -12 0 -9 -12 5 -14 4 -14 -6 1 -10 15 -8 21 7 32
23 18 26 18 19 0z m304 1 c0 -21 -20 -30 -33 -16 -9 10 -8 12 7 6 14 -5 17 -2
12 9 -3 8 -1 15 4 15 6 0 10 -6 10 -14z m71 -3 c13 -17 13 -17 -6 -3 -11 8
-22 16 -24 17 -2 2 0 3 6 3 6 0 17 -8 24 -17z m-11 -17 c0 -2 -9 -2 -20 1 -11
3 -20 9 -20 15 0 5 9 4 20 -2 11 -6 20 -12 20 -14z m-106 -2 c3 -8 2 -12 -4
-9 -6 3 -10 10 -10 16 0 14 7 11 14 -7z m670 8 c3 -5 -1 -9 -9 -9 -8 0 -12 4
-9 9 3 4 7 8 9 8 2 0 6 -4 9 -8z m-526 -13 c-2 -6 -7 -10 -12 -9 -4 1 -13 -6
-20 -16 -10 -13 -15 -14 -21 -4 -5 8 -4 11 2 7 6 -4 14 0 17 9 3 8 10 12 16 9
5 -3 10 -1 10 4 0 6 3 11 6 11 3 0 4 -5 2 -11z m25 -11 c-6 -7 -9 -21 -8 -30
2 -10 -1 -18 -6 -18 -9 0 -7 23 6 53 4 10 10 16 13 13 3 -3 0 -11 -5 -18z
m1027 12 c8 -5 11 -10 5 -10 -5 0 -17 5 -25 10 -8 5 -10 10 -5 10 6 0 17 -5
25 -10z m-1140 -10 c-8 -5 -19 -10 -25 -10 -5 0 -3 5 5 10 8 5 20 10 25 10 6
0 3 -5 -5 -10z m28 -46 c-4 -3 -12 5 -18 18 -12 22 -12 22 6 6 10 -10 15 -20
12 -24z m146 7 c-8 -9 -43 -11 -48 -3 -2 4 9 7 25 7 15 1 26 -1 23 -4z m29 -6
c4 -8 3 -16 -1 -19 -4 -3 -9 4 -9 15 -2 23 3 25 10 4z m842 5 c3 -5 1 -10 -4
-10 -6 0 -11 5 -11 10 0 6 2 10 4 10 3 0 8 -4 11 -10z m-983 -29 c-4 -10 -7
-11 -10 -3 -2 7 -9 9 -14 6 -6 -4 -8 -3 -5 3 10 16 36 11 29 -6z m25 -6 c0 -8
-4 -12 -9 -9 -5 3 -6 10 -3 15 9 13 12 11 12 -6z m42 2 c8 -10 7 -14 -2 -14
-8 0 -14 6 -14 14 0 7 1 13 2 13 2 0 8 -6 14 -13z m81 -21 c0 -3 -4 -8 -10
-11 -5 -3 -10 -1 -10 4 0 6 5 11 10 11 6 0 10 -2 10 -4z"/>
<path d="M1685 1130 c-4 -6 -14 -9 -23 -8 -11 2 -16 -5 -17 -24 -1 -19 2 -25
13 -21 13 5 13 3 0 -18 -17 -28 -18 -54 -1 -54 6 0 14 -3 18 -7 4 -4 14 -4 23
-1 10 4 13 2 8 -5 -4 -7 -13 -12 -21 -12 -14 0 -15 -24 0 -37 4 -4 5 -2 1 4
-5 9 -2 11 11 7 14 -4 15 -3 4 4 -9 7 -10 12 -2 16 6 4 11 2 11 -4 0 -6 5 -8
11 -4 8 5 8 9 -1 14 -8 5 -8 10 -2 14 5 3 13 -2 17 -12 6 -16 7 -16 20 1 11
16 13 16 19 2 3 -9 2 -13 -4 -10 -8 5 -32 -27 -27 -36 1 -2 -3 2 -10 9 -6 8
-14 9 -17 4 -3 -5 1 -15 9 -22 12 -10 18 -10 30 0 8 7 12 17 8 24 -4 6 0 6 9
-2 13 -10 17 -10 21 2 3 7 1 18 -5 24 -8 8 -7 16 3 29 13 16 12 17 -3 4 -10
-7 -18 -10 -18 -6 0 4 -6 2 -14 -4 -16 -13 -24 -5 -31 30 -5 25 -15 38 -15 21
0 -9 -5 -9 -19 0 -19 11 -18 13 10 34 29 21 29 23 10 29 -12 3 -19 11 -16 16
4 5 4 9 1 9 -3 0 -8 -5 -11 -10z m18 -24 c7 4 5 -1 -4 -10 -9 -10 -22 -14 -33
-10 -15 6 -15 7 1 19 10 8 20 9 21 4 2 -5 9 -6 15 -3z m-23 -62 c0 5 6 3 13
-3 8 -6 16 -9 18 -6 3 2 5 -6 6 -18 0 -12 -1 -16 -4 -9 -4 9 -8 10 -18 2 -9
-8 -15 -8 -20 0 -3 6 -10 8 -15 5 -4 -3 -7 3 -5 12 2 10 4 23 4 28 1 6 6 3 11
-5 5 -8 10 -11 10 -6z"/>
<path d="M1671 1024 c6 -7 16 -11 21 -8 11 7 3 17 -18 20 -12 2 -13 -1 -3 -12z"/>
<path d="M1647 942 c-5 -9 30 -67 40 -67 5 0 7 -8 6 -17 -4 -25 13 -23 20 2 3
12 11 18 19 15 7 -3 20 0 28 7 9 7 13 12 11 11 -2 -2 -19 9 -38 23 -29 22 -36
24 -50 12 -9 -7 -14 -8 -10 -2 4 7 0 14 -8 18 -8 3 -16 2 -18 -2z m57 -26 c-3
-9 1 -13 12 -13 9 1 18 -4 20 -11 1 -7 0 -8 -3 -2 -2 5 -9 10 -14 10 -6 0 -8
-4 -5 -9 4 -5 -5 -4 -18 2 -21 10 -22 13 -7 24 21 16 21 16 15 -1z"/>
<path d="M945 770 c-3 -6 1 -7 9 -4 18 7 21 14 7 14 -6 0 -13 -4 -16 -10z"/>
<path d="M2454 656 c0 -21 15 -27 45 -17 6 2 -31 41 -39 41 -3 0 -6 -11 -6
-24z m31 -6 c3 -5 2 -10 -4 -10 -5 0 -13 5 -16 10 -3 6 -2 10 4 10 5 0 13 -4
16 -10z"/>
<path d="M2549 613 c-13 -16 -12 -17 4 -4 9 7 17 15 17 17 0 8 -8 3 -21 -13z"/>
<path d="M900 530 c-6 -11 -16 -17 -22 -14 -7 5 -8 2 -3 -6 6 -10 12 -8 25 8
10 12 21 18 25 14 5 -4 5 -1 1 6 -10 16 -14 15 -26 -8z"/>
<path d="M864 619 c-3 -6 -2 -15 3 -20 5 -5 9 -1 9 11 0 23 -2 24 -12 9z"/>
<path d="M325 2425 l-320 -102 0 -559 0 -559 130 -72 c72 -39 135 -72 140 -72
7 -1 10 196 10 571 l0 571 320 107 c360 120 344 105 183 164 -51 19 -104 38
-118 44 -20 7 -85 -10 -345 -93z"/>
<path d="M2515 1311 c-3 -5 -2 -12 3 -15 5 -3 9 1 9 9 0 17 -3 19 -12 6z"/>
<path d="M1765 1294 c9 -9 19 -13 23 -10 3 4 0 11 -8 16 -24 15 -33 11 -15 -6z"/>
<path d="M1715 1280 c-3 -5 -1 -10 4 -10 6 0 11 5 11 10 0 6 -2 10 -4 10 -3 0
-8 -4 -11 -10z"/>
<path d="M1689 1262 c10 -7 10 -11 1 -17 -7 -4 -16 -2 -20 5 -5 8 -10 8 -14 2
-8 -13 19 -23 39 -15 19 7 15 25 -6 31 -11 3 -12 2 0 -6z"/>
<path d="M1757 1260 c12 -5 26 -16 31 -26 8 -14 10 -12 10 11 0 16 -4 22 -8
15 -5 -9 -9 -9 -14 -1 -4 6 -15 11 -24 10 -13 0 -12 -2 5 -9z"/>
<path d="M2435 1261 c-3 -5 -2 -12 3 -15 5 -3 9 1 9 9 0 17 -3 19 -12 6z"/>
<path d="M1727 1249 c7 -7 15 -10 18 -7 3 3 -2 9 -12 12 -14 6 -15 5 -6 -5z"/>
<path d="M2467 1249 c7 -7 15 -10 18 -7 3 3 -2 9 -12 12 -14 6 -15 5 -6 -5z"/>
<path d="M2546 1248 c3 -5 10 -6 15 -3 13 9 11 12 -6 12 -8 0 -12 -4 -9 -9z"/>
<path d="M2575 1229 c-3 -4 2 -6 10 -5 21 3 28 13 10 13 -9 0 -18 -4 -20 -8z"/>
<path d="M2453 1203 c0 -10 4 -10 16 -1 9 7 18 13 20 15 2 1 -5 1 -16 0 -11 0
-20 -7 -20 -14z"/>
<path d="M2480 1176 c0 -2 8 -10 18 -17 15 -13 16 -12 3 4 -13 16 -21 21 -21
13z"/>
<path d="M2430 1125 c0 -8 4 -15 8 -15 5 0 9 7 9 15 0 8 -4 15 -9 15 -4 0 -8
-7 -8 -15z"/>
<path d="M2526 1128 c3 -5 10 -6 15 -3 13 9 11 12 -6 12 -8 0 -12 -4 -9 -9z"/>
<path d="M2512 1105 c15 -16 20 -17 30 -6 11 11 10 13 0 7 -7 -4 -21 -2 -30 5
-15 12 -15 11 0 -6z"/>
<path d="M2595 1100 c-4 -6 -10 -8 -14 -6 -4 3 -8 -1 -8 -9 0 -13 4 -12 19 2
18 16 22 23 14 23 -3 0 -8 -5 -11 -10z"/>
<path d="M2450 1088 c0 -11 12 -10 30 2 12 7 10 9 -8 7 -12 0 -22 -5 -22 -9z"/>
<path d="M2430 1059 c0 -5 5 -7 10 -4 6 3 10 8 10 11 0 2 -4 4 -10 4 -5 0 -10
-5 -10 -11z"/>
<path d="M2535 1060 c-4 -6 -15 -8 -26 -5 -30 10 -22 -2 9 -13 24 -8 28 -7 28
9 0 22 -2 23 -11 9z"/>
<path d="M2455 1041 c-3 -5 0 -13 6 -17 7 -4 9 -3 5 4 -3 5 0 13 6 15 9 4 10
6 1 6 -6 1 -14 -3 -18 -8z"/>
<path d="M2480 1018 c-10 -21 -10 -21 3 -6 8 10 18 14 22 10 5 -4 5 -1 1 6
-10 17 -14 15 -26 -10z"/>
<path d="M2432 1004 c2 -8 8 -15 13 -14 6 1 12 -9 15 -21 6 -24 30 -39 30 -19
0 6 -4 9 -9 5 -5 -3 -11 5 -13 17 -2 13 -9 22 -17 20 -8 -2 -11 3 -8 13 4 8 2
15 -4 15 -6 0 -9 -7 -7 -16z"/>
<path d="M2557 1006 c-3 -8 0 -17 7 -19 10 -4 12 1 9 14 -6 23 -9 24 -16 5z"/>
<path d="M2495 1001 c-3 -5 0 -13 6 -17 7 -4 9 -3 5 4 -3 5 0 13 6 15 9 4 10
6 1 6 -6 1 -14 -3 -18 -8z"/>
<path d="M2510 970 c-13 -8 -12 -10 3 -10 9 0 17 5 17 10 0 12 -1 12 -20 0z"/>
<path d="M2586 972 c-3 -5 1 -9 9 -9 8 0 12 4 9 9 -3 4 -7 8 -9 8 -2 0 -6 -4
-9 -8z"/>
<path d="M2535 949 c-5 -8 -5 -11 -1 -7 10 8 44 -24 38 -36 -3 -5 0 -6 7 -1
10 6 10 10 0 19 -7 6 -18 17 -25 25 -9 12 -12 12 -19 0z"/>
<path d="M2810 950 c0 -5 5 -10 11 -10 5 0 7 5 4 10 -3 6 -8 10 -11 10 -2 0
-4 -4 -4 -10z"/>
<path d="M2597 933 c3 -7 6 -13 8 -13 1 0 7 6 13 13 8 10 6 13 -7 13 -11 0
-17 -6 -14 -13z"/>
<path d="M962 925 c-10 -8 -22 -11 -26 -8 -3 3 -6 1 -6 -5 0 -16 11 -15 33 3
11 7 25 11 33 8 8 -3 14 -3 14 0 0 13 -30 14 -48 2z"/>
<path d="M2439 938 c0 -2 -2 -14 -3 -27 -3 -22 -2 -23 11 -6 16 22 17 35 3 35
-5 0 -10 -1 -11 -2z"/>
<path d="M2501 923 c0 -11 3 -13 6 -5 2 6 10 9 15 6 7 -4 8 -2 4 4 -11 18 -26
14 -25 -5z"/>
<path d="M2674 916 c1 -8 5 -18 8 -22 4 -3 5 1 4 10 -1 8 -5 18 -8 22 -4 3 -5
-1 -4 -10z"/>
<path d="M2534 905 c-4 -8 -11 -12 -18 -9 -6 4 -1 -3 10 -16 22 -22 45 -20 43
3 0 9 -2 9 -6 0 -7 -20 -19 -15 -20 7 -1 13 2 18 9 14 7 -4 8 -2 4 4 -10 16
-15 15 -22 -3z"/>
<path d="M2707 909 c7 -7 15 -10 18 -7 3 3 -2 9 -12 12 -14 6 -15 5 -6 -5z"/>
<path d="M2740 916 c0 -2 8 -10 18 -17 15 -13 16 -12 3 4 -13 16 -21 21 -21
13z"/>
<path d="M2815 910 c3 -5 8 -10 11 -10 2 0 4 5 4 10 0 6 -5 10 -11 10 -5 0 -7
-4 -4 -10z"/>
<path d="M2620 898 c8 -8 21 -20 28 -28 11 -13 12 -12 6 4 -6 15 -4 17 7 11 8
-4 12 -6 9 -2 -3 3 -9 6 -15 7 -5 1 -19 6 -30 12 -17 8 -18 7 -5 -4z"/>
<path d="M893 884 c0 -8 4 -14 9 -14 4 0 8 5 8 11 0 5 6 7 13 3 6 -4 8 -3 4 1
-13 15 -34 14 -34 -1z"/>
<path d="M2446 885 c-25 -19 -17 -19 25 0 24 10 28 14 14 14 -11 0 -29 -6 -39
-14z"/>
<path d="M2593 885 c0 -8 4 -15 9 -15 4 0 8 4 8 9 0 6 -4 12 -8 15 -5 3 -9 -1
-9 -9z"/>
<path d="M2786 892 c-3 -5 1 -9 9 -9 8 0 12 4 9 9 -3 4 -7 8 -9 8 -2 0 -6 -4
-9 -8z"/>
<path d="M2724 848 c-12 -14 -13 -18 -3 -10 9 6 18 10 21 7 2 -3 5 2 5 10 0
19 0 19 -23 -7z"/>
<path d="M2773 855 c0 -8 4 -12 9 -9 5 3 6 10 3 15 -9 13 -12 11 -12 -6z"/>
<path d="M2560 850 c-8 -5 -10 -10 -5 -10 6 0 17 5 25 10 8 5 11 10 5 10 -5 0
-17 -5 -25 -10z"/>
<path d="M2610 856 c0 -2 7 -7 16 -10 8 -3 12 -2 9 4 -6 10 -25 14 -25 6z"/>
<path d="M2660 850 c-8 -5 -10 -10 -5 -10 6 0 17 5 25 10 8 5 11 10 5 10 -5 0
-17 -5 -25 -10z"/>
<path d="M2806 852 c-3 -5 1 -9 9 -9 8 0 12 4 9 9 -3 4 -7 8 -9 8 -2 0 -6 -4
-9 -8z"/>
<path d="M2513 824 c-6 -16 12 -34 32 -33 6 0 4 3 -3 6 -6 2 -9 10 -6 15 4 7
2 8 -4 4 -7 -4 -12 -3 -12 3 0 5 6 12 13 14 9 4 9 6 -1 6 -7 1 -15 -6 -19 -15z"/>
<path d="M2576 831 c-3 -5 2 -15 12 -22 15 -13 16 -12 3 4 -12 15 -11 17 7 17
15 0 19 -5 16 -22 -4 -21 -4 -21 5 -3 4 11 7 23 4 28 -6 10 -41 9 -47 -2z"/>
<path d="M2680 814 c-13 -32 -12 -34 2 -34 6 0 9 3 5 6 -3 3 -2 17 3 30 5 13
7 24 5 24 -3 0 -10 -12 -15 -26z"/>
<path d="M2550 822 c0 -6 5 -14 12 -18 7 -5 5 -11 -7 -21 -11 -7 -13 -13 -7
-13 7 0 12 -5 12 -11 0 -5 -4 -7 -10 -4 -5 3 -10 1 -10 -5 0 -7 6 -10 13 -7 6
2 12 11 12 20 0 23 15 34 16 11 0 -10 3 -13 6 -7 2 7 -5 25 -16 39 -12 15 -21
22 -21 16z"/>
<path d="M2730 815 c-10 -13 -11 -18 -1 -28 10 -9 11 -8 5 7 -5 12 -4 17 3 13
5 -3 10 0 10 8 0 19 -2 19 -17 0z"/>
<path d="M2774 810 c0 -13 4 -16 10 -10 7 7 7 13 0 20 -6 6 -10 3 -10 -10z"/>
<path d="M2635 800 c-3 -6 1 -7 9 -4 18 7 21 14 7 14 -6 0 -13 -4 -16 -10z"/>
<path d="M676 792 c-2 -4 -1 -14 3 -21 6 -9 11 -10 15 -2 4 6 2 11 -4 11 -6 0
-8 5 -5 10 3 6 4 10 1 10 -3 0 -7 -4 -10 -8z"/>
<path d="M2895 790 c3 -5 8 -10 11 -10 2 0 4 5 4 10 0 6 -5 10 -11 10 -5 0 -7
-4 -4 -10z"/>
<path d="M716 775 c4 -8 11 -15 16 -15 6 0 5 6 -2 15 -7 8 -14 15 -16 15 -2 0
-1 -7 2 -15z"/>
<path d="M2620 765 c0 -8 2 -15 4 -15 2 0 6 7 10 15 3 8 1 15 -4 15 -6 0 -10
-7 -10 -15z"/>
<path d="M2657 769 c7 -7 15 -10 18 -7 3 3 -2 9 -12 12 -14 6 -15 5 -6 -5z"/>
<path d="M2706 767 c3 -10 9 -15 12 -12 3 3 0 11 -7 18 -10 9 -11 8 -5 -6z"/>
<path d="M2810 776 c0 -2 7 -7 16 -10 8 -3 12 -2 9 4 -6 10 -25 14 -25 6z"/>
<path d="M635 760 c-4 -6 1 -7 11 -3 13 5 15 3 9 -7 -5 -9 -4 -11 4 -6 6 4 9
12 6 17 -8 12 -22 12 -30 -1z"/>
<path d="M697 753 c-2 -5 -3 -15 -2 -23 0 -8 -9 -18 -20 -22 -17 -6 -16 -7 5
-5 14 1 24 7 22 12 -2 6 7 13 20 17 l23 6 -23 1 c-13 1 -20 6 -17 11 3 6 4 10
1 10 -3 0 -7 -3 -9 -7z"/>
<path d="M750 750 c0 -5 5 -10 10 -10 6 0 10 5 10 10 0 6 -4 10 -10 10 -5 0
-10 -4 -10 -10z"/>
<path d="M2575 740 c-35 -23 -39 -46 -7 -43 21 3 31 -10 15 -20 -5 -2 -2 -2 6
0 8 2 23 -5 34 -14 14 -12 18 -13 12 -3 -5 8 -22 25 -37 38 -26 22 -29 42 -7
42 6 0 7 -4 4 -10 -4 -6 1 -7 11 -3 11 4 13 8 6 11 -7 2 -10 8 -6 13 8 13 3
11 -31 -11z m-5 -30 c0 -5 -4 -10 -10 -10 -5 0 -10 5 -10 10 0 6 5 10 10 10 6
0 10 -4 10 -10z"/>
<path d="M2636 744 c-8 -20 -8 -24 2 -24 4 0 8 9 9 20 2 24 -3 26 -11 4z"/>
<path d="M2895 750 c-3 -5 -1 -10 4 -10 6 0 11 5 11 10 0 6 -2 10 -4 10 -3 0
-8 -4 -11 -10z"/>
<path d="M660 730 c-9 -6 -10 -10 -3 -10 6 0 15 5 18 10 8 12 4 12 -15 0z"/>
<path d="M2668 733 c7 -3 16 -2 19 1 4 3 -2 6 -13 5 -11 0 -14 -3 -6 -6z"/>
<path d="M2766 727 c3 -10 9 -15 12 -12 3 3 0 11 -7 18 -10 9 -11 8 -5 -6z"/>
<path d="M2830 731 c0 -6 4 -13 10 -16 6 -3 7 1 4 9 -7 18 -14 21 -14 7z"/>
<path d="M2715 721 c-3 -5 -2 -12 3 -15 5 -3 9 1 9 9 0 17 -3 19 -12 6z"/>
<path d="M598 713 c7 -3 16 -2 19 1 4 3 -2 6 -13 5 -11 0 -14 -3 -6 -6z"/>
<path d="M2610 717 c0 -4 9 -16 20 -27 11 -11 20 -15 20 -9 0 5 4 7 10 4 6 -4
7 1 3 11 -4 10 -2 15 3 11 6 -3 16 -1 24 4 11 7 9 8 -9 6 -14 -2 -27 -9 -29
-16 -3 -9 -10 -7 -23 5 -10 9 -19 14 -19 11z"/>
<path d="M539 708 c-5 -18 -6 -38 -1 -34 7 8 12 36 6 36 -2 0 -4 -1 -5 -2z"/>
<path d="M596 684 c-8 -20 -8 -24 2 -24 4 0 8 9 9 20 2 24 -3 26 -11 4z"/>
<path d="M2696 685 c4 -8 8 -15 10 -15 2 0 4 7 4 15 0 8 -4 15 -10 15 -5 0 -7
-7 -4 -15z"/>
<path d="M2770 688 c0 -4 4 -8 9 -8 6 0 12 4 15 8 3 5 -1 9 -9 9 -8 0 -15 -4
-15 -9z"/>
<path d="M2664 665 c-18 -14 -18 -14 4 -8 12 3 22 9 22 14 0 12 -3 11 -26 -6z"/>
<path d="M2730 660 c-6 -11 -8 -20 -6 -20 3 0 10 9 16 20 6 11 8 20 6 20 -3 0
-10 -9 -16 -20z"/>
<path d="M640 659 c0 -5 -5 -7 -11 -3 -8 4 -7 0 1 -15 6 -12 16 -18 22 -15 7
5 9 2 5 -8 -8 -22 17 -56 28 -38 5 9 4 11 -3 6 -7 -4 -13 -1 -13 6 -1 7 -2 20
-3 28 0 8 -7 14 -14 12 -9 -2 -11 4 -7 18 3 11 4 20 1 20 -3 0 -6 -5 -6 -11z"/>
<path d="M676 655 c-3 -9 -2 -14 3 -11 5 3 12 -1 15 -10 4 -9 9 -14 12 -11 3
3 -1 15 -9 27 -12 18 -15 19 -21 5z"/>
<path d="M710 660 c0 -5 5 -10 10 -10 6 0 10 5 10 10 0 6 -4 10 -10 10 -5 0
-10 -4 -10 -10z"/>
<path d="M499 643 c-13 -16 -12 -17 4 -4 16 13 21 21 13 21 -2 0 -10 -8 -17
-17z"/>
<path d="M736 645 c-3 -8 -1 -15 4 -15 6 0 10 7 10 15 0 8 -2 15 -4 15 -2 0
-6 -7 -10 -15z"/>
<path d="M989 651 c-2 -13 -6 -29 -9 -36 -1 -3 -3 -10 -4 -15 0 -6 -6 -14 -12
-18 -13 -8 -15 -44 -2 -36 5 3 6 10 3 15 -3 5 0 6 8 4 7 -3 13 -19 13 -36 0
-23 -3 -28 -15 -24 -28 11 -36 10 -33 -4 1 -7 -2 -19 -8 -26 -8 -9 -8 -15 0
-20 5 -3 10 -4 10 -1 0 3 9 -2 19 -11 11 -9 17 -22 14 -29 -3 -8 -1 -14 3 -15
5 0 18 -2 30 -4 13 -3 21 1 21 10 0 18 -9 19 -25 3 -9 -9 -12 -9 -12 0 0 7 6
12 13 12 6 0 3 6 -8 12 -26 15 -63 50 -50 48 22 -5 29 1 15 11 -13 9 -13 10 0
6 8 -2 14 -12 12 -21 -2 -9 3 -15 10 -14 7 2 12 -3 11 -9 -2 -7 2 -13 7 -13
13 0 13 27 0 35 -5 3 -10 12 -10 18 0 8 3 8 9 -1 7 -11 10 -10 15 3 9 24 8 25
-11 18 -13 -5 -12 -1 5 17 29 31 28 49 0 24 -13 -10 -20 -15 -16 -10 4 5 3 16
-2 26 -7 13 -5 16 8 15 36 -4 53 -17 42 -30 -8 -9 -7 -14 2 -18 7 -2 9 -8 5
-13 -4 -5 -12 -2 -17 6 -6 8 -10 11 -10 5 0 -14 16 -37 25 -37 4 0 11 6 15 12
5 8 9 7 13 -5 4 -9 3 -14 -2 -11 -5 3 -11 -1 -15 -9 -8 -21 7 -19 38 6 14 11
26 17 26 13 0 -4 9 3 20 16 11 13 20 28 20 33 0 10 -33 -14 -56 -40 -9 -10
-16 -7 -33 11 -21 22 -21 54 -1 41 5 -3 11 -1 15 5 3 5 1 10 -5 10 -6 0 -9 4
-6 8 2 4 -4 8 -14 8 -10 0 -16 -4 -14 -8 3 -4 1 -8 -5 -8 -10 0 -25 35 -26 59
0 17 -24 28 -26 12z m15 -52 c-3 -5 -10 -7 -15 -3 -5 3 -7 10 -3 15 3 5 10 7
15 3 5 -3 7 -10 3 -15z"/>
<path d="M2685 650 c-18 -8 -18 -9 -2 -9 12 -1 16 -6 11 -13 -4 -7 -3 -9 1 -5
7 6 17 39 12 36 -1 0 -11 -4 -22 -9z"/>
<path d="M547 629 c7 -7 15 -10 18 -7 3 3 -2 9 -12 12 -14 6 -15 5 -6 -5z"/>
<path d="M355 621 c-3 -5 -2 -12 3 -15 5 -3 9 1 9 9 0 17 -3 19 -12 6z"/>
<path d="M393 605 c0 -8 4 -12 9 -9 5 3 6 10 3 15 -9 13 -12 11 -12 -6z"/>
<path d="M496 603 c-6 -14 -5 -15 5 -6 7 7 10 15 7 18 -3 3 -9 -2 -12 -12z"/>
<path d="M680 610 c0 -5 5 -10 11 -10 5 0 7 5 4 10 -3 6 -8 10 -11 10 -2 0 -4
-4 -4 -10z"/>
<path d="M725 610 c3 -5 2 -10 -3 -10 -6 0 -12 -7 -16 -15 -7 -19 3 -47 15
-39 13 8 11 -10 -3 -24 -8 -8 -8 -12 -1 -12 20 0 25 34 7 47 -15 11 -15 13 0
28 18 19 21 35 5 35 -5 0 -7 -4 -4 -10z"/>
<path d="M2427 606 c-3 -8 -2 -18 3 -21 11 -7 7 -29 -9 -49 -8 -9 -11 -19 -8
-22 8 -8 31 37 32 63 2 30 -10 50 -18 29z"/>
<path d="M548 599 c-4 -11 1 -15 17 -15 13 0 21 4 19 8 -3 5 -9 6 -14 3 -4 -3
-10 0 -12 7 -3 8 -6 7 -10 -3z"/>
<path d="M597 599 c7 -7 15 -10 18 -7 3 3 -2 9 -12 12 -14 6 -15 5 -6 -5z"/>
<path d="M515 580 c-4 -6 -11 -7 -17 -4 -7 4 -8 2 -4 -5 6 -9 11 -9 22 0 14
11 18 19 10 19 -3 0 -8 -5 -11 -10z"/>
<path d="M610 567 c0 -8 3 -17 7 -20 8 -8 33 12 33 26 0 6 -7 2 -16 -9 -13
-16 -15 -16 -10 -1 3 9 1 17 -4 17 -6 0 -10 -6 -10 -13z"/>
<path d="M555 560 c-3 -6 1 -7 9 -4 18 7 21 14 7 14 -6 0 -13 -4 -16 -10z"/>
<path d="M525 549 c-4 -6 -5 -12 -2 -15 2 -3 7 2 10 11 7 17 1 20 -8 4z"/>
<path d="M655 550 c-3 -5 -3 -10 2 -10 4 0 1 -5 -7 -11 -10 -7 -11 -9 -2 -7 8
2 13 8 12 13 -1 5 7 12 17 16 16 7 16 8 1 8 -9 1 -20 -3 -23 -9z"/>
<path d="M1110 550 c0 -5 5 -10 10 -10 6 0 10 5 10 10 0 6 -4 10 -10 10 -5 0
-10 -4 -10 -10z"/>
<path d="M493 535 c0 -8 4 -15 9 -15 4 0 8 4 8 9 0 6 -4 12 -8 15 -5 3 -9 -1
-9 -9z"/>
<path d="M547 529 c7 -9 10 -19 6 -22 -3 -4 -1 -7 5 -7 17 0 15 16 -5 31 -16
12 -17 12 -6 -2z"/>
<path d="M585 530 c-3 -5 -2 -10 4 -10 5 0 13 5 16 10 3 6 2 10 -4 10 -5 0
-13 -4 -16 -10z"/>
<path d="M687 523 c4 -9 2 -14 -3 -10 -6 3 -15 -3 -22 -14 -15 -24 -8 -24 18
-2 21 18 27 43 10 43 -5 0 -6 -7 -3 -17z"/>
<path d="M615 520 c-7 -11 22 -26 32 -16 4 3 -1 6 -11 6 -9 0 -14 5 -11 10 3
6 4 10 1 10 -3 0 -8 -5 -11 -10z"/>
<path d="M700 489 c0 -5 4 -8 9 -4 6 3 15 -3 21 -12 11 -17 11 -17 6 0 -3 10
-6 21 -6 23 0 2 -7 4 -15 4 -8 0 -15 -5 -15 -11z"/>
<path d="M1015 482 c-4 -10 0 -12 11 -8 8 3 18 6 20 6 2 0 4 4 4 8 0 15 -29 9
-35 -6z"/>
<path d="M1021 451 c-8 -14 -7 -20 4 -25 8 -3 15 -9 14 -13 -3 -19 2 -33 12
-33 5 0 8 4 5 9 -3 4 6 13 21 20 21 10 29 9 43 -4 16 -14 18 -14 24 0 4 11 -3
19 -21 26 -14 5 -32 17 -39 27 -11 14 -13 15 -14 2 0 -9 6 -22 13 -29 8 -10 8
-12 0 -7 -6 3 -15 1 -18 -4 -7 -12 -34 16 -34 35 0 6 4 2 10 -7 14 -25 32 -23
19 2 -13 25 -26 25 -39 1z"/>
</g>
</svg>
